<?xml version="1.0" encoding="UTF-8" standalone="no"?><!DOCTYPE svg PUBLIC "-//W3C//DTD SVG 1.1//EN" "http://www.w3.org/Graphics/SVG/1.1/DTD/svg11.dtd"><svg width="100%" height="100%" viewBox="0 0 32 32" version="1.1" xmlns="http://www.w3.org/2000/svg" xmlns:xlink="http://www.w3.org/1999/xlink" xml:space="preserve" xmlns:serif="http://www.serif.com/" style="fill-rule:evenodd;clip-rule:evenodd;"><g id="g4276"><rect id="g42761" serif:id="g4276" x="0.002" y="-0.038" width="32.022" height="32.155" style="fill:#282828;"/></g><g id="g932"><ellipse id="ellipse928" cx="8.789" cy="9.236" rx="2.858" ry="2.988" style="fill:none;stroke:#d6d3d3;stroke-width:1.01px;"/><path id="path930" d="M10.855,7.196l2.511,-2.459m-4.603,1.412l0.053,-3.399m-2.093,4.341l-3.4,-3.348m2.616,5.702l-2.041,-0.105m4.865,2.825l0,3.819m2.04,-4.551l7.428,7.428m-6.539,-9.468l12.084,-0.105m-0.591,-1.099l-0.628,1.099l0.575,1.151m1.167,-2.197l-0.523,1.046l0.732,1.255m-11.665,-7.166l0.523,1.36l1.255,0.262m-2.667,-0.733l0.418,1.465m-4.708,-3.557l1.152,0.575l1.098,-0.732m-7.742,2.093l1.151,-0.367l0.366,-1.203m-0.732,2.459l1.308,-0.314m-1.047,3.557l0.68,1.098l-0.627,1.255m1.308,0.001l0.575,-1.308m-1.308,3.348l1.412,0.471l0.314,1.098m0.889,-0.889l-0.471,-1.203l0.89,-0.628m0.733,5.126l1.15,-0.627l1.255,0.732m-0.052,-1.413l-1.255,-0.68m8.055,4.447l0.472,-1.255l1.307,-0.262m-0.733,2.511l0.419,-1.203l1.255,-0.21" style="fill:none;stroke:#d6d3d3;stroke-width:1.01px;"/></g><path id="path1286" d="M12.895,20.215c-0.124,-0.272 -0.395,-0.444 -0.667,-0.444l-1.949,0l2.492,-3.481c0.173,-0.222 0.173,-0.518 0.05,-0.765c-0.124,-0.247 -0.37,-0.395 -0.667,-0.395l-5.06,0c-0.296,0 -0.592,0.198 -0.691,0.469l-2.789,7.331c-0.098,0.222 -0.049,0.494 0.074,0.691c0.148,0.198 0.371,0.321 0.617,0.321l1.432,0l-1.901,5.011c-0.123,0.345 0,0.715 0.297,0.888c0.123,0.074 0.246,0.099 0.395,0.099c0.197,0 0.419,-0.074 0.543,-0.247l7.7,-8.688c0.198,-0.222 0.247,-0.519 0.124,-0.79Zm-6.245,5.479l0.839,-2.221c0.099,-0.222 0.05,-0.494 -0.074,-0.691c-0.148,-0.198 -0.37,-0.321 -0.617,-0.321l-1.431,0l2.246,-5.85l3.085,0l-2.493,3.481c-0.173,0.222 -0.173,0.518 -0.049,0.765c0.123,0.246 0.37,0.395 0.666,0.395l1.753,0l-3.925,4.442Z" style="fill:#9d9d9d;fill-rule:nonzero;"/><path id="rect1298" d="M7.613,16.61l-2.246,5.85l1.431,0c0.247,0 0.469,0.124 0.617,0.322c0.124,0.197 0.173,0.469 0.075,0.691l-0.838,2.221l3.924,-4.443l-1.752,0c-0.297,0 -0.543,-0.148 -0.666,-0.395c-0.124,-0.247 -0.124,-0.543 0.048,-0.766l2.493,-3.48l-3.086,0Z" style="fill:#858585;fill-rule:nonzero;"/><g id="g1511"><path id="path1301" d="M29.056,20.378c0.263,-0.259 0.417,-0.637 0.424,-1.038c0,-0.382 -0.147,-0.86 -0.7,-1.295c0.754,-0.535 0.946,-1.121 0.946,-1.58c-0.014,-0.5 -0.222,-0.965 -0.565,-1.265c0.367,-0.329 0.588,-0.832 0.602,-1.372c0,-2.057 -3.554,-3.131 -7.062,-3.131c-3.509,0 -7.062,1.074 -7.062,3.131c0,0.627 0.328,1.484 1.771,2.143c-0.051,0.158 -0.077,0.326 -0.076,0.495c0,0.926 0.754,1.681 2.152,2.185c-0.113,0.206 -0.174,0.445 -0.175,0.689c0,0.795 0.616,1.437 1.76,1.859c-0.043,0.133 -0.065,0.274 -0.065,0.416c0,0.405 0.172,0.91 0.847,1.318c-0.143,0.196 -0.222,0.445 -0.223,0.702c-0.003,0.204 0.044,0.404 0.136,0.577c-0.458,0.258 -0.704,0.62 -0.704,1.059c0,0.132 0.023,0.264 0.068,0.385c-0.249,0.193 -0.401,0.516 -0.407,0.864c0,0.778 0.766,1.319 1.865,1.319c1,0 1.726,-0.449 1.847,-1.118c1.051,-0.112 2.054,-0.524 2.088,-1.401c1.166,-0.211 2.166,-0.725 2.166,-1.671c0.001,-0.183 -0.039,-0.362 -0.116,-0.521c0.774,-0.369 1.19,-0.894 1.19,-1.513c0,-0.37 -0.147,-0.831 -0.707,-1.237Z" style="fill-rule:nonzero;"/><g id="g1237"><path id="path1086" d="M29.056,20.378c0.263,-0.259 0.417,-0.637 0.424,-1.038c0,-0.382 -0.147,-0.86 -0.7,-1.295c0.754,-0.535 0.946,-1.121 0.946,-1.58c-0.014,-0.5 -0.222,-0.965 -0.565,-1.265c0.367,-0.329 0.588,-0.832 0.602,-1.372c0,-2.057 -3.554,-3.131 -7.062,-3.131c-3.509,0 -7.062,1.074 -7.062,3.131c0,0.627 0.328,1.484 1.771,2.143c-0.051,0.158 -0.077,0.326 -0.076,0.495c0,0.926 0.754,1.681 2.152,2.185c-0.113,0.206 -0.174,0.445 -0.175,0.689c0,0.795 0.616,1.437 1.76,1.859c-0.043,0.133 -0.065,0.274 -0.065,0.416c0,0.405 0.172,0.91 0.847,1.318c-0.143,0.196 -0.222,0.445 -0.223,0.702c-0.003,0.204 0.044,0.404 0.136,0.577c-0.458,0.258 -0.704,0.62 -0.704,1.059c0,0.132 0.023,0.264 0.068,0.385c-0.249,0.193 -0.401,0.516 -0.407,0.864c0,0.778 0.766,1.319 1.865,1.319c1,0 1.726,-0.449 1.847,-1.118c1.051,-0.112 2.054,-0.524 2.088,-1.401c1.166,-0.211 2.166,-0.725 2.166,-1.671c0.001,-0.183 -0.039,-0.362 -0.116,-0.521c0.774,-0.369 1.19,-0.894 1.19,-1.513c0,-0.37 -0.147,-0.831 -0.707,-1.237Zm-3.573,3.732c-0.312,0.012 -0.556,0.317 -0.546,0.681c0.005,0.172 0.067,0.334 0.173,0.453c-0.429,0.138 -0.873,0.203 -1.319,0.195l-0.203,0c-0.312,-0.011 -0.572,0.276 -0.581,0.64c-0.003,0.133 0.028,0.263 0.089,0.375c-0.166,0.046 -0.337,0.068 -0.508,0.066l-0.136,0c0.303,-0.087 0.489,-0.443 0.415,-0.797c-0.041,-0.196 -0.156,-0.358 -0.313,-0.443c0.218,-0.066 0.441,-0.111 0.667,-0.135c0.31,-0.035 0.538,-0.357 0.507,-0.719c-0.022,-0.268 -0.181,-0.494 -0.403,-0.57c-0.153,-0.049 -0.302,-0.116 -0.443,-0.201c0.15,-0.09 0.308,-0.162 0.471,-0.214c0.193,-0.066 0.342,-0.247 0.39,-0.475c0.541,0.107 1.089,0.16 1.638,0.159c0.456,0.001 0.911,-0.035 1.362,-0.106c0.043,0.223 0.182,0.404 0.367,0.478c0.111,0.042 0.219,0.095 0.322,0.158c-0.616,0.305 -1.279,0.46 -1.949,0.455Zm2.359,-9.494c-0.283,0.153 -0.407,0.545 -0.276,0.875c0.057,0.142 0.154,0.256 0.276,0.322c0.244,0.111 0.468,0.276 0.658,0.488c-0.001,0.016 -0.001,0.033 0,0.049c0,0.221 -0.181,0.478 -0.534,0.722c-0.25,0.133 -0.509,0.244 -0.774,0.33l-0.505,0.188c-0.147,0.046 -0.323,0.108 -0.676,0.197c-0.153,0.031 -0.257,0.2 -0.231,0.379c0.022,0.162 0.142,0.279 0.282,0.277l0.028,0c0.257,-0.049 0.498,-0.108 0.724,-0.171c0.062,0.195 0.201,0.344 0.372,0.402c0.8,0.264 1.091,0.554 1.15,0.659c-0.206,0.249 -0.467,0.428 -0.754,0.518c-0.182,0.081 -0.318,0.263 -0.362,0.485c-0.067,0.347 0.114,0.695 0.41,0.784c0.304,0.081 0.595,0.215 0.864,0.399c-0.014,0.135 -0.206,0.33 -0.565,0.485c-0.24,0.091 -0.485,0.164 -0.734,0.217c-0.597,0.127 -1.201,0.208 -1.808,0.241c-0.691,-0.037 -1.379,-0.137 -2.056,-0.3c-0.178,-0.046 -0.331,-0.096 -0.464,-0.148c-0.367,-0.172 -0.565,-0.353 -0.582,-0.492c0.048,-0.036 0.097,-0.069 0.147,-0.099c0.135,-0.08 0.237,-0.22 0.283,-0.389c0.342,0.06 0.697,0.099 1.053,0.122l0.015,0c0.156,0 0.282,-0.147 0.282,-0.329c0,-0.176 -0.118,-0.321 -0.268,-0.33c-0.356,-0.036 -0.531,-0.053 -0.831,-0.115l-0.079,-0.02c-0.229,-0.066 -0.508,-0.158 -0.602,-0.178c-0.414,-0.083 -0.82,-0.217 -1.211,-0.399c-0.283,-0.181 -0.427,-0.369 -0.427,-0.521c-0.001,-0.037 -0.008,-0.074 -0.02,-0.109c0.107,-0.085 0.221,-0.159 0.339,-0.22c0.183,-0.092 0.314,-0.283 0.351,-0.511c0.046,-0.352 -0.155,-0.683 -0.455,-0.749c-1.811,-0.385 -2.398,-1.045 -2.398,-1.21c0.037,-0.124 0.111,-0.229 0.209,-0.296c0.08,-0.074 0.141,-0.172 0.178,-0.284c0.74,0.226 1.496,0.376 2.259,0.449l0.026,0c0.156,0.008 0.288,-0.133 0.295,-0.315c0.007,-0.182 -0.114,-0.337 -0.27,-0.345c-0.685,-0.053 -1.365,-0.185 -2.028,-0.395c-0.147,-0.04 -0.545,-0.221 -0.641,-0.261c-1.243,-0.481 -1.723,-0.959 -1.723,-1.19c0,-0.639 2.26,-1.813 5.932,-1.813c3.672,0 5.932,1.174 5.932,1.813c0,0.129 -0.167,0.439 -0.791,0.788Z" style="fill:#ccc;fill-rule:nonzero;"/><path id="path1092" d="M25.713,18.181c-0.016,-0.182 -0.156,-0.314 -0.312,-0.295l-0.26,0.03c-0.156,0.005 -0.279,0.156 -0.275,0.338c0.004,0.182 0.133,0.326 0.29,0.321l0.022,0l0.283,-0.029c0.156,-0.02 0.269,-0.183 0.252,-0.365Z" style="fill:#ccc;fill-rule:nonzero;"/><path id="path1098" d="M25.436,20.458c-0.014,0 -0.027,0.001 -0.04,0.003c-0.147,0 -0.297,0.03 -0.452,0.036c-0.156,0 -0.283,0.148 -0.283,0.33c0,0.182 0.127,0.329 0.283,0.329l0.017,0c0.161,0 0.319,-0.023 0.474,-0.039c0.156,0 0.283,-0.147 0.283,-0.329c0,-0.182 -0.126,-0.33 -0.282,-0.33Z" style="fill:#ccc;fill-rule:nonzero;"/><path id="path1104" d="M26.884,20.498c-0.038,-0.169 -0.181,-0.274 -0.327,-0.241l-0.184,0.039c-0.153,0.036 -0.252,0.21 -0.221,0.389c0.027,0.154 0.143,0.264 0.277,0.264l0.057,0l0.195,-0.05c0.151,-0.045 0.242,-0.225 0.203,-0.401Z" style="fill:#ccc;fill-rule:nonzero;"/><path id="path1110" d="M22.435,15.744l-0.37,0l-0.011,0c-0.156,0 -0.283,0.147 -0.283,0.329c0,0.182 0.127,0.33 0.283,0.33l0.381,0c0.156,0 0.283,-0.148 0.283,-0.33c0,-0.182 -0.127,-0.329 -0.283,-0.329Z" style="fill:#ccc;fill-rule:nonzero;"/><path id="path1116" d="M24.879,15.928c-0.017,-0.182 -0.158,-0.313 -0.314,-0.293c-0.245,0.03 -0.495,0.056 -0.751,0.076c-0.157,0.005 -0.28,0.158 -0.276,0.341c0.005,0.183 0.136,0.327 0.293,0.321l0.017,0c0.265,-0.02 0.525,-0.046 0.779,-0.079c0.156,-0.02 0.269,-0.184 0.252,-0.366Z" style="fill:#ccc;fill-rule:nonzero;"/><path id="path1122" d="M26.322,15.635c-0.03,-0.181 -0.181,-0.299 -0.336,-0.264l-0.283,0.066c-0.156,0.017 -0.27,0.179 -0.255,0.361c0.015,0.182 0.153,0.316 0.309,0.298l0.057,0l0.282,-0.069c0.155,-0.035 0.257,-0.211 0.226,-0.392Z" style="fill:#ccc;fill-rule:nonzero;"/><path id="path1128" d="M25.437,14.509c-0.026,-0.182 -0.174,-0.305 -0.33,-0.275l-0.234,0.043c-0.156,0.012 -0.274,0.17 -0.263,0.352c0.011,0.182 0.147,0.32 0.303,0.307l0.048,0l0.24,-0.043c0.156,-0.03 0.261,-0.202 0.236,-0.384Z" style="fill:#ccc;fill-rule:nonzero;"/><path id="path1134" d="M24.249,12.648c-0.154,0.03 -0.259,0.199 -0.233,0.379c0.017,0.119 0.087,0.217 0.185,0.257c1.356,0.139 1.929,0.406 2.096,0.544c-0.185,0.13 -0.388,0.223 -0.599,0.274c-0.156,0.023 -0.267,0.189 -0.247,0.371c0.019,0.182 0.161,0.311 0.317,0.288c0.024,0.004 0.048,0.004 0.071,0c0.455,-0.138 1.062,-0.382 1.062,-0.91c0,-0.616 -0.892,-1.022 -2.652,-1.203Z" style="fill:#ccc;fill-rule:nonzero;"/><path id="path1140" d="M23.206,12.553l-0.322,0c-0.156,0.002 -0.28,0.152 -0.278,0.334c0.002,0.182 0.131,0.328 0.287,0.325l0.313,0c0.156,0 0.283,-0.148 0.283,-0.33c0,-0.182 -0.127,-0.329 -0.283,-0.329Z" style="fill:#ccc;fill-rule:nonzero;"/><path id="path1146" d="M21.947,12.566l-0.444,0.026c-0.156,0.006 -0.279,0.158 -0.274,0.34c0.005,0.182 0.135,0.325 0.291,0.319l0.02,0l0.429,-0.026c0.156,-0.007 0.278,-0.161 0.271,-0.343c-0.006,-0.182 -0.137,-0.324 -0.293,-0.316Z" style="fill:#ccc;fill-rule:nonzero;"/></g></g></svg>